HIERARCHY
ROOT Hips
{
	OFFSET 0.000000 0.000000 0.000000 
	CHANNELS 6 Xposition Yposition Zposition Zrotation Yrotation Xrotation
	JOINT LeftUpLeg
	{
		OFFSET 1.363060 -1.794630 0.839290 
		CHANNELS 3 Zrotation Yrotation Xrotation
		JOINT LeftLeg
		{
			OFFSET 2.448110 -6.726130 0.000000 
			CHANNELS 3 Zrotation Yrotation Xrotation
			JOINT LeftFoot
			{
				OFFSET 2.562200 -7.039590 0.000000 
				CHANNELS 3 Zrotation Yrotation Xrotation
				JOINT LeftToeBase
				{
					OFFSET 0.157640 -0.433110 2.322550 
					CHANNELS 3 Zrotation Yrotation Xrotation
					End Site
					{
						OFFSET 0.000000 0.000000 0.000000 
					}
				}
			}
		}
	}
	JOINT RightUpLeg
	{
		OFFSET -1.305520 -1.794630 0.839290 
		CHANNELS 3 Zrotation Yrotation Xrotation
		JOINT RightLeg
		{
			OFFSET -2.542530 -6.985550 0.000000 
			CHANNELS 3 Zrotation Yrotation Xrotation
			JOINT RightFoot
			{
				OFFSET -2.568260 -7.056230 0.000000 
				CHANNELS 3 Zrotation Yrotation Xrotation
				JOINT RightToeBase
				{
					OFFSET -0.164730 -0.452590 2.363150 
					CHANNELS 3 Zrotation Yrotation Xrotation
					End Site
					{
						OFFSET 0.000000 0.000000 0.000000 
					}
				}
			}
		}
	}
	JOINT Spine
	{
		OFFSET 0.028270 2.035590 -0.193380 
		CHANNELS 3 Zrotation Yrotation Xrotation
		JOINT Spine1
		{
			OFFSET 0.056720 2.048850 -0.042750 
			CHANNELS 3 Zrotation Yrotation Xrotation
			JOINT Neck1
			{
				OFFSET -0.054170 1.746240 0.172020 
				CHANNELS 3 Zrotation Yrotation Xrotation
				JOINT Head
				{
					OFFSET 0.104070 1.761360 -0.123970 
					CHANNELS 3 Zrotation Yrotation Xrotation
					End Site
					{
						OFFSET 0.000000 0.000000 0.000000 
					}
				}
			}
			JOINT LeftArm
			{
				OFFSET 3.362410 1.200890 -0.311210 
				CHANNELS 3 Zrotation Yrotation Xrotation
				JOINT LeftForeArm
				{
					OFFSET 4.983000 -0.000000 -0.000000 
					CHANNELS 3 Zrotation Yrotation Xrotation
					JOINT LeftHand
					{
						OFFSET 3.483560 -0.000000 -0.000000 
						CHANNELS 3 Zrotation Yrotation Xrotation
						JOINT LeftHandIndex1
						{
							OFFSET 0.715260 -0.000000 -0.000000 
							CHANNELS 3 Zrotation Yrotation Xrotation
							End Site
							{
								OFFSET 0.000000 0.000000 0.000000 
							}
						}
					}
				}
			}
			JOINT RightArm
			{
				OFFSET -3.136600 1.374050 -0.404650 
				CHANNELS 3 Zrotation Yrotation Xrotation
				JOINT RightForeArm
				{
					OFFSET -5.241900 -0.000000 -0.000000 
					CHANNELS 3 Zrotation Yrotation Xrotation
					JOINT RightHand
					{
						OFFSET -3.444170 -0.000000 -0.000000 
						CHANNELS 3 Zrotation Yrotation Xrotation
						JOINT RightHandIndex1
						{
							OFFSET -0.622530 -0.000000 -0.000000 
							CHANNELS 3 Zrotation Yrotation Xrotation
							End Site
							{
								OFFSET 0.000000 0.000000 0.000000 
							}
						}
					}
				}
			}
		}
	}
}
MOTION
Frames: 16
Frame Time: 0.041667
9.668392 17.689949 50.860577 176.741726 -0.437994 173.328473 -25.514423 -8.636879 -3.214770 -1.871582 9.518575 27.393296 -3.002116 10.717076 -4.412993 0.590800 -4.921100 -13.683600 12.236874 7.964288 -6.206162 -1.371929 -11.873778 37.547296 3.829105 -13.037510 -9.814106 -0.867400 5.938600 -16.606300 -0.834707 5.684189 -1.289724 -10.903992 1.745774 -7.569585 10.318444 14.008524 38.079290 2.786400 7.022000 15.670700 -89.018027 16.515620 13.489573 21.574881 -22.186915 -5.872430 1.889210 1.326291 17.244761 -7.125000 0.000000 0.000000 82.954516 -11.785712 60.643156 -18.291684 21.559232 -5.407853 1.837106 1.331334 15.749409 7.125000 0.000000 0.000000 
9.663333 17.688745 50.867564 176.719783 -0.245427 173.406403 -25.542376 -8.538445 -3.402633 -1.864527 9.546784 27.452270 -3.056810 10.840910 -4.555080 0.618200 -5.031700 -13.998900 12.178682 8.113491 -6.351405 -1.397284 -11.918037 37.642829 3.771686 -12.907016 -9.759579 -0.892600 6.022000 -16.848300 -0.851084 5.900263 -1.326123 -10.937473 1.845264 -7.604190 10.040164 14.122973 37.807926 2.625900 7.080700 15.568800 -88.907628 16.436227 13.741058 21.624016 -22.237662 -5.889840 1.893975 1.308683 17.207723 -7.125000 0.000000 0.000000 83.055530 -11.793533 59.903889 -18.387952 21.672395 -5.446792 1.835830 1.335055 15.444385 7.125000 0.000000 0.000000 
9.658755 17.685131 50.883104 176.672727 -0.035613 173.432706 -25.581643 -8.353975 -3.584375 -1.860889 9.557851 27.467691 -3.080134 10.891863 -4.552738 0.609600 -4.997400 -13.901100 12.107827 8.307878 -6.431561 -1.401539 -11.937796 37.663886 3.749745 -12.855065 -9.733369 -0.900400 6.047300 -16.921800 -0.856081 6.078555 -1.415115 -10.977985 1.915061 -7.798707 9.829844 14.254377 37.599977 2.499100 7.145700 15.477200 -88.902361 16.448926 13.874972 21.698488 -22.301142 -5.921565 1.747180 1.425707 17.220213 -7.125000 0.000000 0.000000 83.032853 -11.933696 59.557740 -18.575124 21.885308 -5.515480 1.861075 1.297811 15.195997 7.125000 0.000000 0.000000 
9.660201 17.687540 50.887802 176.584996 -0.559296 173.553900 -25.643677 -8.514404 -3.603846 -1.864730 9.558288 27.450378 -2.995957 10.706707 -4.414757 0.626800 -5.066300 -14.097700 12.036835 8.184314 -6.486948 -1.405167 -11.945121 37.696187 3.876395 -13.182391 -10.118246 -0.871000 5.950600 -16.641100 -0.920162 5.922797 -1.477752 -10.892170 1.845364 -7.804887 9.831812 14.315554 37.512677 2.500500 7.179100 15.417800 -88.872961 16.411760 13.976670 21.699673 -22.306936 -5.924879 1.785917 1.395114 17.284189 -7.125000 0.000000 0.000000 83.078780 -12.001560 59.246518 -18.664146 21.984528 -5.543130 1.865556 1.289115 14.842722 7.125000 0.000000 0.000000 
9.659237 17.691877 50.886597 176.534573 -0.964180 173.658883 -25.692694 -8.746990 -3.553864 -1.878530 9.548093 27.403651 -2.950442 10.607076 -4.363738 0.648000 -5.149300 -14.334900 11.989970 8.065913 -6.532170 -1.403508 -11.943787 37.690787 4.050829 -13.584736 -10.312213 -0.810400 5.744900 -16.046100 -1.089687 5.881413 -1.443333 -10.925388 1.836500 -7.644794 9.813005 14.290565 37.388429 2.478700 7.205800 15.391200 -88.608969 16.222544 14.289659 21.794145 -22.413342 -5.976017 1.748011 1.425991 16.874161 -7.125000 0.000000 0.000000 83.412083 -11.862153 58.481824 -18.618236 21.935745 -5.523878 1.831582 1.335692 14.649368 7.125000 0.000000 0.000000 
9.656948 17.692118 50.884790 176.551532 -1.275943 173.517924 -25.723881 -8.888834 -3.308715 -1.883148 9.524874 27.363448 -2.879635 10.453142 -4.291852 0.624000 -5.054900 -14.065300 12.047881 7.965166 -6.329282 -1.404926 -11.920114 37.695130 4.041881 -13.579964 -10.404742 -0.773500 5.615500 -15.672700 -1.375637 5.986660 -1.235568 -11.121474 1.903210 -7.426380 9.703647 14.062894 37.301766 2.409000 7.167500 15.486900 -87.998002 15.831725 14.996001 22.023637 -22.665503 -6.070777 1.747488 1.388466 15.821641 -7.125000 0.000000 0.000000 84.030696 -11.600467 57.239877 -18.568072 21.887029 -5.502335 1.763520 1.416572 14.497939 7.125000 0.000000 0.000000 
9.655262 17.698502 50.884670 176.563166 -1.182125 173.579507 -25.686193 -8.784130 -3.402943 -1.891627 9.515147 27.327982 -2.904279 10.506680 -4.303552 0.622900 -5.050500 -14.052600 12.086522 8.234369 -6.277846 -1.372058 -11.908680 37.622376 4.025812 -13.556198 -10.482756 -0.835100 5.829700 -16.291200 -1.154095 5.950583 -1.288550 -10.945023 1.890131 -7.462362 9.655128 14.288601 37.249247 2.405700 7.214700 15.379800 -88.449302 15.881733 14.414954 21.919862 -22.562438 -6.047646 1.714658 1.456398 16.503263 -7.125000 0.000000 0.000000 83.684283 -11.814142 57.365474 -18.707794 22.047790 -5.543070 1.750564 1.422085 13.777011 7.125000 0.000000 0.000000 
9.655503 17.696213 50.893222 176.615145 -1.416578 173.356028 -25.699161 -8.966801 -3.117614 -1.894569 9.499920 27.311041 -2.906289 10.510595 -4.336961 0.627200 -5.067600 -14.101600 12.217023 8.205297 -6.007600 -1.361018 -11.884738 37.629207 4.142810 -13.864811 -10.828319 -0.850500 5.881700 -16.441700 -1.348735 5.991384 -1.126827 -11.169715 1.907800 -7.442579 9.706679 14.166735 37.327574 2.459700 7.188400 15.506400 -88.075613 15.588601 14.815261 22.020762 -22.679001 -6.093252 1.732465 1.429406 15.975556 -7.125000 0.000000 0.000000 84.050389 -11.639029 56.689219 -18.794732 22.112039 -5.529997 1.798249 1.356193 12.906998 7.125000 0.000000 0.000000 
9.652491 17.692359 50.902498 176.648830 -1.653027 173.191368 -25.753570 -9.237426 -2.858178 -1.897323 9.487995 27.295919 -2.874575 10.439046 -4.308124 0.574300 -4.853200 -13.490400 12.271269 8.038918 -5.898056 -1.376149 -11.885037 37.688115 4.231689 -14.086560 -10.993562 -0.818300 5.772300 -16.125100 -1.380398 5.926557 -1.154833 -11.298561 1.855293 -7.612872 9.835658 14.180197 37.372489 2.518300 7.189800 15.466000 -88.144097 15.693994 14.728582 21.942355 -22.593608 -6.064508 1.706867 1.466363 16.469981 -7.125000 0.000000 0.000000 84.172667 -11.799918 56.083072 -18.821897 22.139548 -5.528108 1.795013 1.354390 12.605020 7.125000 0.000000 0.000000 
9.645022 17.693202 50.904425 176.638601 -1.786514 173.292656 -25.751703 -9.202900 -2.993324 -1.894002 9.497183 27.301197 -2.826365 10.331388 -4.158029 0.626600 -5.065500 -14.095400 12.228713 7.951017 -6.014673 -1.378615 -11.889317 37.681238 4.275833 -14.175649 -10.966119 -0.878300 5.974800 -16.711300 -1.584258 6.031249 -1.167454 -11.459212 1.899410 -7.542280 9.844656 14.025681 37.255444 2.494800 7.168900 15.452200 -87.830480 15.486458 14.849461 21.979102 -22.642581 -6.074522 1.752230 1.418925 16.238602 -7.125000 0.000000 0.000000 84.616369 -11.781611 54.870980 -18.786256 22.117979 -5.535310 1.746258 1.423721 12.748734 7.125000 0.000000 0.000000 
9.634663 17.683444 50.918640 176.485611 -1.251148 173.221259 -25.937761 -8.756251 -3.197728 -1.878952 9.515449 27.363019 -2.933964 10.569912 -4.340140 0.718300 -5.415900 -15.098600 12.037158 8.274242 -6.079443 -1.392221 -11.908957 37.685468 4.247883 -14.061732 -10.653999 -1.009200 6.392100 -17.926300 -1.187155 6.022955 -1.292048 -11.197693 1.887851 -7.876865 9.896577 14.424331 37.372076 2.571600 7.241600 15.341500 -88.761469 16.214138 14.872272 22.370261 -23.046377 -6.255880 1.655522 1.444581 15.945036 -7.125000 0.000000 0.000000 83.759856 -12.148292 55.444988 -18.920508 22.312913 -5.625732 1.690335 1.496962 11.804582 7.125000 0.000000 0.000000 
9.643938 17.677783 50.911412 176.474599 -1.690683 173.059881 -25.970758 -8.908121 -2.891638 -1.872034 9.502524 27.368930 -2.852658 10.394127 -4.299481 0.728900 -5.454900 -15.210600 12.160509 8.176876 -5.802504 -1.413885 -11.911044 37.809996 4.300747 -14.249023 -11.078354 -1.030500 6.457000 -18.116400 -1.509555 6.072850 -0.961526 -11.289588 1.956682 -7.475253 9.821473 14.113647 37.423311 2.544500 7.175700 15.569900 -88.027922 15.843434 15.881182 22.490633 -23.166084 -6.306343 1.634190 1.440912 15.365611 -7.125000 0.000000 0.000000 84.432964 -11.669479 54.088163 -18.941429 22.322865 -5.613103 1.679838 1.514889 10.959437 7.125000 0.000000 0.000000 
9.634783 17.680915 50.914785 176.367945 -1.591595 173.249167 -26.081470 -8.902758 -3.075426 -1.881638 9.508172 27.352799 -2.850111 10.392899 -4.362828 0.697400 -5.338200 -14.875700 12.010354 8.318212 -6.021270 -1.421202 -11.943930 37.833199 4.395720 -14.454439 -11.106651 -1.087500 6.627700 -18.617000 -1.466842 6.102282 -1.050537 -11.259677 1.966755 -7.457412 9.913684 14.250098 37.362496 2.591000 7.218900 15.449800 -88.347329 15.840099 15.561400 22.584193 -23.267231 -6.344425 1.648347 1.413174 14.837686 -7.125000 0.000000 0.000000 84.263599 -11.768752 53.861394 -19.064974 22.464480 -5.653357 1.666420 1.524004 10.269060 7.125000 0.000000 0.000000 
9.632133 17.679831 50.917435 176.295176 -1.449942 173.184294 -26.162534 -8.728166 -3.102275 -1.875368 9.512182 27.376553 -2.859605 10.419661 -4.467238 0.742500 -5.504400 -15.353100 11.969006 8.487477 -5.941151 -1.421876 -11.946771 37.857183 4.356737 -14.392089 -11.249344 -1.041500 6.490500 -18.214400 -1.515245 6.219642 -0.953587 -11.269175 2.036908 -7.404942 9.990624 14.208214 37.343807 2.640100 7.221300 15.460000 -88.310693 15.624743 15.409138 22.509356 -23.195909 -6.321517 1.649797 1.436836 14.838523 -7.125000 0.000000 0.000000 84.398584 -11.574712 53.252645 -19.047557 22.450509 -5.656678 1.645598 1.557464 9.878006 7.125000 0.000000 0.000000 
9.626471 17.675614 50.920085 176.309218 -1.301925 173.136600 -26.185201 -8.648175 -3.113774 -1.872069 9.514245 27.388529 -2.926354 10.562243 -4.499558 0.759600 -5.566100 -15.530600 11.980083 8.657378 -5.885016 -1.416726 -11.948160 37.853481 4.293019 -14.250547 -11.221108 -0.969900 6.270100 -17.570200 -1.263162 6.163430 -1.022433 -11.128503 2.005099 -7.539340 9.965337 14.415917 37.287634 2.622100 7.268300 15.324100 -88.878662 15.793437 14.825697 22.452715 -23.137200 -6.305712 1.630034 1.470214 14.928796 -7.125000 0.000000 0.000000 84.035466 -11.730462 53.308232 -19.032322 22.436108 -5.653073 1.645296 1.563987 9.366826 7.125000 0.000000 0.000000 
9.625508 17.667784 50.922976 176.326503 -1.132583 172.950756 -26.190501 -8.431092 -3.063606 -1.859208 9.513663 27.418775 -2.972126 10.661171 -4.525462 0.764800 -5.584600 -15.583700 12.060702 8.833429 -5.696860 -1.421142 -11.952429 37.890848 4.473060 -14.655978 -11.292920 -0.995900 6.351000 -17.806200 -1.167910 6.204565 -0.997385 -11.114163 2.022288 -7.644880 9.941067 14.468025 37.290102 2.609100 7.273600 15.295500 -89.049905 15.960705 14.961799 22.635857 -23.325922 -6.380107 1.628718 1.434696 14.073882 -7.125000 0.000000 0.000000 83.939417 -11.817350 53.080553 -19.074767 22.485928 -5.664408 1.639065 1.568951 8.946683 7.125000 0.000000 0.000000 
